<svg width="20" height="14" viewBox="0 0 20 14" fill="none" xmlns="http://www.w3.org/2000/svg">
<path d="M14.1797 7.82031H11.6797V4.5H8.32031V7.82031H5.82031L10 12L14.1797 7.82031ZM16.1328 5.35938C17.2005 5.4375 18.112 5.88021 18.8672 6.6875C19.6224 7.46875 20 8.40625 20 9.5C20 10.6458 19.5833 11.6354 18.75 12.4688C17.9427 13.276 16.9661 13.6797 15.8203 13.6797H5C3.61979 13.6797 2.4349 13.1979 1.44531 12.2344C0.481771 11.2448 0 10.0599 0 8.67969C0 7.45573 0.429688 6.36198 1.28906 5.39844C2.17448 4.40885 3.22917 3.84896 4.45312 3.71875C5 2.70312 5.76823 1.88281 6.75781 1.25781C7.7474 0.632812 8.82812 0.320312 10 0.320312C11.4062 0.320312 12.7083 0.815104 13.9062 1.80469C15.1302 2.79427 15.8724 3.97917 16.1328 5.35938Z" fill="#294D7E"/>
</svg>
